<?xml version="1.0" standalone="no"?>
<!DOCTYPE svg PUBLIC "-//W3C//DTD SVG 20010904//EN"
 "http://www.w3.org/TR/2001/REC-SVG-20010904/DTD/svg10.dtd">
<svg version="1.0" xmlns="http://www.w3.org/2000/svg"
 width="400.000000pt" height="400.000000pt" viewBox="0 0 400.000000 400.000000"
 preserveAspectRatio="xMidYMid meet">
<metadata>
Created by potrace 1.11, written by Peter Selinger 2001-2013
</metadata>
<g transform="translate(0.000000,400.000000) scale(0.100000,-0.100000)"
fill="#000000" stroke="none">
<path d="M3080 2988 c-88 -12 -257 -70 -337 -115 -237 -132 -395 -346 -465
-630 -31 -125 -31 -360 -1 -484 46 -185 119 -327 231 -449 191 -210 449 -320
747 -320 232 0 390 55 565 195 71 56 191 196 175 202 -6 2 -52 28 -104 56
l-94 53 -81 -81 c-118 -119 -224 -172 -382 -194 -138 -20 -320 16 -444 87
-173 98 -295 261 -352 467 -32 117 -32 336 0 453 86 319 328 521 656 548 171
14 370 -56 492 -173 34 -32 68 -69 77 -82 l15 -23 101 57 c56 31 101 61 101
67 0 5 -46 56 -102 112 -117 118 -199 170 -335 216 -145 48 -301 61 -463 38z"/>
<path d="M270 2365 c-80 -17 -169 -47 -205 -71 -33 -21 -65 -83 -65 -125 0
-43 27 -95 62 -120 47 -34 95 -35 184 -4 148 51 357 44 481 -17 26 -13 95 -49
153 -80 144 -78 252 -108 410 -115 209 -9 364 29 550 135 103 59 133 100 127
173 -5 56 -34 101 -81 123 -58 28 -96 21 -208 -39 -132 -69 -203 -88 -338 -88
-141 0 -208 19 -360 102 -143 78 -206 103 -313 125 -93 19 -305 20 -397 1z"/>
</g>
</svg>
